<svg xmlns="http://www.w3.org/2000/svg" xmlns:xlink="http://www.w3.org/1999/xlink"><symbol id="sprite-arrow-big" fill="none" viewBox="0 0 8 8"><path stroke="currentColor" stroke-width="1.6" d="m.8 7.2 6.4-6.4m0 0h-6.4m6.4-.8v7.2"/></symbol><use xlink:href="#sprite-arrow-big" width="8" height="8"/><view id="sprite-arrow-big-view" viewBox="0 0 8 8"/><symbol id="sprite-arrow" fill="none" viewBox="0 0 10 10"><g clip-path="url(#a)"><path stroke="currentColor" stroke-width=".8" d="m1.8 8.2 6.4-6.4m0 0h-6.36m6.36 0v6.36"/></g><defs><clipPath id="a"><path fill="currentColor" d="M1 1h8v8h-8z"/></clipPath></defs></symbol><use xlink:href="#sprite-arrow" width="10" height="10" y="8"/><view id="sprite-arrow-view" viewBox="0 8 10 10"/><symbol id="sprite-burger-close" fill="none" viewBox="0 0 18 18"><path stroke="#316DC2" stroke-linecap="round" stroke-linejoin="round" d="m1 17 8-8m0 0 8-8m-8 8 8 8m-8-8-8-8"/></symbol><use xlink:href="#sprite-burger-close" width="18" height="18" y="18"/><view id="sprite-burger-close-view" viewBox="0 18 18 18"/><symbol id="sprite-burger-open" fill="none" viewBox="0 0 16 8"><g clip-path="url(#a)"><path stroke="#fff" stroke-linecap="round" stroke-width=".8" d="M.8.8h14.4m-14.4 3.2h14.4m-14.4 3.2h14.4"/></g><defs><clipPath id="a"><path fill="#fff" d="M0 0h16v8h-16z"/></clipPath></defs></symbol><use xlink:href="#sprite-burger-open" width="16" height="8" y="36"/><view id="sprite-burger-open-view" viewBox="0 36 16 8"/><symbol id="sprite-check" fill="none" viewBox="0 0 10 10"><path stroke="currentColor" stroke-linecap="round" stroke-linejoin="round" d="m1 4.5 2.95 3.5 5.05-6"/></symbol><use xlink:href="#sprite-check" width="10" height="10" y="44"/><view id="sprite-check-view" viewBox="0 44 10 10"/><symbol id="sprite-logo" fill="none" viewBox="0 0 52 52"><rect width="52" height="52" fill="#fff" rx="26"/><path fill="#316DC2" d="M11.92 19.8c-.85.6-1.35 1.9-.41 3.43s14.38 11.9 14.88 12.2.98.33 2.24-.68 11.74-8.88 12-9.12c.44-.38.54-1.3 0-1.73 0 0-12.7 9.5-13.11 9.89-.42.38-1.06-.24-.94-1.06s.2-.9 1.82-2.16l11.18-8.48c.47-.35.48-.96-.3-1.5l-13.01-9.27c-.4-.3-.93-.55-1.73.02-.81.58-11.06 7.35-12.62 8.46"/><path fill="#316DC2" d="M26.39 36.43c-.33-.19-6.23-4.71-10.51-8.24v7.35c0 5.37 15.12 8.24 20.13 1.64v-7.03a778 778 0 0 0-7.38 5.61c-1.26 1-1.75.96-2.24.67"/><path fill="#98B8E6" d="M32.78 28.37s2.25 1.13 2.41 5.68l-1.09-.3-.87 1.85c-.37-4.98-2.37-5.7-2.37-5.7z"/></symbol><use xlink:href="#sprite-logo" width="52" height="52" y="54"/><view id="sprite-logo-view" viewBox="0 54 52 52"/><symbol id="sprite-ok" fill="none" viewBox="0 0 9 16"><path fill="currentColor" d="M4.5 2.42c.92 0 1.66.77 1.66 1.71s-.74 1.7-1.66 1.7-1.66-.76-1.66-1.7.74-1.71 1.66-1.71m0 5.84a4.1 4.1 0 0 0 4.01-4.13c0-2.28-1.8-4.13-4.01-4.13s-4 1.85-4 4.13 1.79 4.13 4 4.13m1.62 3.37a7 7 0 0 0 2.33-1 1.23 1.23 0 0 0 .37-1.66 1.15 1.15 0 0 0-1.62-.38 5 5 0 0 1-5.4 0 1.15 1.15 0 0 0-1.62.38 1.23 1.23 0 0 0 .37 1.66 7 7 0 0 0 2.33 1l-2.24 2.3a1.24 1.24 0 0 0 0 1.71 1.16 1.16 0 0 0 1.66 0l2.2-2.26 2.2 2.26c.46.48 1.2.48 1.66 0a1.24 1.24 0 0 0 0-1.7z"/></symbol><use xlink:href="#sprite-ok" width="9" height="16" y="106"/><view id="sprite-ok-view" viewBox="0 106 9 16"/><symbol id="sprite-reddit" fill="none" viewBox="0 0 14 15"><path fill="currentColor" d="M8.36 0c-.45 0-.87.24-1.14.6s-.42.78-.53 1.23c-.17.73-.22 1.53-.23 2.26a7 7 0 0 0-3.36 1.1 2 2 0 0 0-1.3-.53c-.5.01-.98.24-1.34.72-.68.92-.6 2.42.19 3.31a5 5 0 0 0-.08.84c0 3.02 2.88 5.47 6.43 5.47s6.43-2.45 6.43-5.47a5 5 0 0 0-.08-.84c.79-.89.87-2.39.19-3.3a1.7 1.7 0 0 0-1.35-.73c-.44 0-.9.2-1.3.54a7 7 0 0 0-3.33-1.11c.02-.67.06-1.37.19-1.9q.12-.49.27-.69c.15-.2.17-.19.34-.19.37 0 .41.13.63.44q.15.23.44.53c.2.19.51.35.84.35v-1.32c-.1 0-.11 0-.17-.06q-.09-.1-.27-.37c-.26-.35-.74-.88-1.47-.88m3.54.12c-.84 0-1.53.83-1.53 1.85 0 1.03.69 1.85 1.53 1.85s1.53-.82 1.53-1.85c0-1.02-.68-1.85-1.53-1.85m0 .66c.55 0 .99.54.99 1.2s-.44 1.18-.99 1.18-.98-.53-.98-1.19.44-1.19.98-1.19m-4.9 4.34c3.02 0 5.57 2.02 5.57 4.41s-2.56 4.42-5.57 4.42-5.57-2.02-5.57-4.42 2.55-4.41 5.57-4.41m-5.17.6q.22 0 .46.12-.83.75-1.28 1.72c-.2-.5-.15-1.14.1-1.48a.9.9 0 0 1 .72-.37m10.35 0a.9.9 0 0 1 .7.37c.26.34.32.97.11 1.48a5 5 0 0 0-1.28-1.72q.24-.12.46-.13m-7.35 1.65c-.54 0-.99.53-.99 1.19s.45 1.19.99 1.19c.55 0 .99-.53.99-1.2 0-.65-.44-1.18-.99-1.18m4.36 0c-.55 0-.99.53-.99 1.19s.44 1.19.99 1.19.99-.53.99-1.2c0-.65-.45-1.18-1-1.18m-4.88 4.04c.35.87 1.42 1.71 2.71 1.71s2.38-.84 2.72-1.7c-.63.48-1.62.82-2.72.82s-2.08-.34-2.7-.83"/></symbol><use xlink:href="#sprite-reddit" width="14" height="15" y="122"/><view id="sprite-reddit-view" viewBox="0 122 14 15"/><symbol id="sprite-star" fill="none" viewBox="0 0 18 22"><path fill="#fff" d="m9 0 3.01 5.48 5.99.02-2.97 5.5 2.97 5.5-5.99.03-3.01 5.47-3.01-5.47-5.99-.03 2.97-5.5-2.97-5.5 5.99-.02z"/></symbol><use xlink:href="#sprite-star" width="18" height="22" y="137"/><view id="sprite-star-view" viewBox="0 137 18 22"/><symbol id="sprite-stroke" fill="none" viewBox="0 0 16 9"><path stroke="currentColor" d="m15.27 1.09-7.27 6.55-7.27-6.55"/></symbol><use xlink:href="#sprite-stroke" width="16" height="9" y="159"/><view id="sprite-stroke-view" viewBox="0 159 16 9"/><symbol id="sprite-user" fill="none" viewBox="0 0 18 20"><path stroke="#163152" stroke-linecap="square" stroke-linejoin="round" d="M15.67 19h-13.34c-.73 0-1.33-.55-1.33-1.23a4.9 4.9 0 0 1 3.43-4.58l.41-.14a12.8 12.8 0 0 1 8.32 0l.4.14a4.9 4.9 0 0 1 3.44 4.58c0 .68-.6 1.23-1.33 1.23Zm-8.7-9.6a4.8 4.8 0 0 0 4.06 0 4.2 4.2 0 0 0 2.32-2.8l.08-.31a4.1 4.1 0 0 0-.84-3.54l-.12-.14c-.82-1.01-2.1-1.61-3.47-1.61s-2.65.6-3.47 1.6l-.12.15a4.1 4.1 0 0 0-.84 3.54l.08.32a4.2 4.2 0 0 0 2.32 2.8Z"/></symbol><use xlink:href="#sprite-user" width="18" height="20" y="168"/><view id="sprite-user-view" viewBox="0 168 18 20"/><symbol id="sprite-vector-bg" fill="none" viewBox="0 0 10 10"><path fill="#fff" d="M10 10a10 10 0 0 1-10-10v10z"/></symbol><use xlink:href="#sprite-vector-bg" width="10" height="10" y="188"/><view id="sprite-vector-bg-view" viewBox="0 188 10 10"/><symbol id="sprite-vk" fill="none" viewBox="0 0 16 9"><path fill="currentColor" d="M15.86 8.03c-.05-.07-.31-.64-1.6-1.82-1.33-1.22-1.15-1.02.46-3.14q1.46-1.93 1.25-2.42c-.11-.32-.84-.24-.84-.24l-2.4.02s-.18-.03-.3.05c-.14.08-.22.26-.22.26s-.38 1-.9 1.85c-1.06 1.79-1.5 1.88-1.67 1.77-.4-.26-.3-1.04-.3-1.6 0-1.74.27-2.46-.52-2.65-.26-.06-.46-.1-1.12-.1-.86-.02-1.59 0-2 .2-.28.13-.49.42-.36.44.16.02.52.1.71.35.25.33.24 1.07.24 1.07s.14 2.05-.33 2.3c-.32.18-.77-.18-1.72-1.8-.5-.84-.87-1.76-.87-1.76s-.07-.17-.2-.27c-.15-.1-.36-.14-.36-.14l-2.29.01s-.34.01-.47.16c-.11.13 0 .4 0 .4s1.78 4.13 3.81 6.21c1.86 1.9 3.97 1.78 3.97 1.78h.96s.28-.03.43-.19c.14-.14.13-.41.13-.41s-.02-1.26.58-1.45c.59-.19 1.34 1.22 2.14 1.76.6.41 1.06.32 1.06.32l2.14-.03s1.12-.07.59-.93"/></symbol><use xlink:href="#sprite-vk" width="16" height="9" y="198"/><view id="sprite-vk-view" viewBox="0 198 16 9"/></svg>